<?xml version="1.0" encoding="UTF-8"?>
<!DOCTYPE svg PUBLIC "-//W3C//DTD SVG 1.1//EN" "http://www.w3.org/Graphics/SVG/1.1/DTD/svg11.dtd">
<!-- Creator: CorelDRAW -->
<svg xmlns="http://www.w3.org/2000/svg" xml:space="preserve" width="77.4601mm" height="8.9979mm" style="shape-rendering:geometricPrecision; text-rendering:geometricPrecision; image-rendering:optimizeQuality; fill-rule:evenodd; clip-rule:evenodd"
viewBox="0 0 40.3184 4.68346"
 xmlns:xlink="http://www.w3.org/1999/xlink">
 <defs>
  <style type="text/css">
   <![CDATA[
    .fil3 {fill:#01AFEE}
    .fil1 {fill:#01AFEE;fill-rule:nonzero}
    .fil0 {fill:#E6E6E6;fill-rule:nonzero}
    .fil2 {fill:#F04A4E;fill-rule:nonzero}
   ]]>
  </style>
 </defs>
 <g id="Layer_x0020_1">
  <metadata id="CorelCorpID_0Corel-Layer"/>
  <path class="fil0" d="M33.7309 3.82848c0.26957,-0.000728708 0.500935,-0.0491878 0.693366,-0.145429 0.192431,-0.0961895 0.339318,-0.23428 0.44217,-0.414218 0.1028,-0.179991 0.154955,-0.395897 0.155683,-0.647821 -0.000728708,-0.251977 -0.0521547,-0.467883 -0.154226,-0.647093 -0.102123,-0.17921 -0.249739,-0.316572 -0.441441,-0.411356 -0.192431,-0.0954607 -0.424524,-0.14392 -0.695552,-0.144701 -0.26957,0.000780759 -0.500935,0.0492398 -0.693366,0.144701 -0.192431,0.0947841 -0.33937,0.232146 -0.44217,0.411356 -0.102852,0.17921 -0.155007,0.395116 -0.155735,0.647093 0.000728708,0.251925 0.0528834,0.467831 0.155735,0.647821 0.1028,0.179939 0.249739,0.318029 0.44217,0.414218 0.192431,0.0962415 0.423796,0.144701 0.693366,0.145429zm0 -0.242347c-0.0873929,-0.000728708 -0.159379,-0.0213407 -0.215229,-0.0602225 -0.0557982,-0.0396625 -0.0991563,-0.0933267 -0.12997,-0.16016 -0.0315947,-0.0668329 -0.0536641,-0.142462 -0.0676137,-0.226212 -0.0132208,-0.0837494 -0.0212887,-0.169685 -0.0242035,-0.259264 -0.00296688,-0.0889024 -0.0044243,-0.175567 -0.00369559,-0.259264 -0.000728708,-0.0889024 0.000728708,-0.178481 0.00369559,-0.26957 0.00291483,-0.0903598 0.0109827,-0.176295 0.0242035,-0.259264 0.0139496,-0.082292 0.036019,-0.155735 0.0676137,-0.221111 0.0308139,-0.0646468 0.0741721,-0.116021 0.12997,-0.153497 0.0558503,-0.0374764 0.127836,-0.056579 0.215229,-0.0573077 0.0866642,0.000728708 0.157921,0.0212887 0.212991,0.061732 0.0550695,0.0403912 0.0984276,0.0940033 0.129294,0.162294 0.0308139,0.0675616 0.0528834,0.143243 0.0661042,0.22694 0.0132208,0.0837494 0.0212887,0.169685 0.0242035,0.257806 0.00296688,0.087445 0.0044243,0.171871 0.00369559,0.251977 0.000728708,0.0793251 -0.000728708,0.163022 -0.00369559,0.251196 -0.00291483,0.0873929 -0.0109827,0.174057 -0.0242035,0.257806 -0.0132208,0.084426 -0.0352903,0.160836 -0.0661042,0.229127 -0.030866,0.0690711 -0.0742241,0.123412 -0.129294,0.164532 -0.0550695,0.0403912 -0.126327,0.061732 -0.212991,0.0624607z"/>
  <path class="fil0" d="M30.571 3.7668l0 -0.259993 -0.277638 0 0 -1.02685c-0.000728708,-0.243128 0.036019,-0.422338 0.108734,-0.536173 0.0727146,-0.113835 0.185092,-0.170414 0.336403,-0.168904 0.0807825,-0.000780759 0.144701,0.0146783 0.19316,0.0477304 0.0491878,0.0323234 0.0837494,0.0859355 0.105767,0.161565 0.0212887,0.0756815 0.0323234,0.177753 0.0315947,0.306318l0 1.21632 -0.277638 0 0 0.259993 1.36617 0 0 -0.259993 -0.326149 0 0 -1.1943c0,-0.293825 -0.0661042,-0.516342 -0.196855,-0.666924 -0.130699,-0.151311 -0.325368,-0.22694 -0.583175,-0.227721 -0.118259,0 -0.223297,0.0132208 -0.315114,0.0396625 -0.0917652,0.0264417 -0.173328,0.0683424 -0.245314,0.124869 -0.0719859,0.056579 -0.13809,0.129294 -0.197584,0.218925l0 -0.321725 -1.08848 0 0 0.259993 0.326097 0 0 1.76722 -0.326097 0 0 0.259993 1.36612 0z"/>
  <path class="fil0" d="M27.8652 3.04845c-0.000728708,0.0844781 -0.0168644,0.157921 -0.0499165,0.221111 -0.0323234,0.0631373 -0.0778677,0.113106 -0.136633,0.148344 -0.0587651,0.0352903 -0.127055,0.0528834 -0.205652,0.0536121 -0.113835,0 -0.198313,-0.0359669 -0.253434,-0.108682 -0.0550695,-0.0719859 -0.0822399,-0.179939 -0.0815112,-0.323182 0.000728708,-0.143972 0.0389338,-0.254892 0.114563,-0.331979 0.0756815,-0.0778677 0.184363,-0.116801 0.326149,-0.11753l0.286434 0 0 0.458305zm0.762437 -0.687484c0.000728708,-0.216687 -0.0419007,-0.395168 -0.126379,-0.534716 -0.084426,-0.138819 -0.214448,-0.242347 -0.389286,-0.309232 -0.175515,-0.0661042 -0.398811,-0.099885 -0.669839,-0.0991563 -0.160836,0 -0.315114,0.0110347 -0.46273,0.0345616 -0.147615,0.0234748 -0.288672,0.0602225 -0.423067,0.110868l0 0.493596 0.2424 0c0.0227461,-0.0954607 0.0565269,-0.1726 0.100614,-0.231365 0.0440868,-0.0587651 0.101342,-0.102071 0.171871,-0.129242 0.0697998,-0.0271704 0.155735,-0.041172 0.256349,-0.0403912 0.182125,-0.000780759 0.318029,0.0433061 0.406151,0.132208 0.0881737,0.0888503 0.132208,0.225483 0.13148,0.409846l0 0.136581 -0.40105 0c-0.722722,0 -1.08411,0.25562 -1.08411,0.766809 0.000728708,0.236518 0.0631894,0.416457 0.186601,0.540597 0.124089,0.123412 0.304079,0.185821 0.540545,0.186549 0.157921,0.000728708 0.298978,-0.0278991 0.423848,-0.0852068 0.124089,-0.0572556 0.235737,-0.146887 0.334165,-0.267332l0 0.290859 1.08853 0 0 -0.259993 -0.326097 0 0 -1.14584z"/>
  <path class="fil0" d="M24.5996 3.14099c0,0.142202 0.0166562,0.261294 0.0484591,0.351081 0.0318029,0.0898393 0.082292,0.16016 0.148396,0.209347 0.0661042,0.0484591 0.149854,0.082292 0.251196,0.100614 0.101342,0.0183739 0.221059,0.0271704 0.35842,0.0264417 0.182906,0.000728708 0.329064,-0.0191026 0.439983,-0.0594938 0.110868,-0.0403912 0.191702,-0.105767 0.243857,-0.196803 0.0521026,-0.0918172 0.0815112,-0.213043 0.0873929,-0.365083l-0.321725 0c-0.00218612,0.129294 -0.025713,0.225483 -0.0705285,0.287215 -0.0447635,0.0616799 -0.112377,0.0925459 -0.202685,0.0918172 -0.0543408,0 -0.0969702,-0.0088486 -0.127055,-0.0264417 -0.030866,-0.0183739 -0.0528834,-0.0455443 -0.0661042,-0.082292 -0.0124921,-0.0366957 -0.0211325,-0.0827604 -0.0235269,-0.138819 -0.00239433,-0.0552777 -0.00369559,-0.121902 -0.00369559,-0.197584l0 -2.17145 9.66225 0 0 -0.468195 -9.66225 0 0 -0.501351 -0.762385 0 0 0.501351 -0.330521 0 0 0.468195 0.330521 0 0 2.17145z"/>
  <polygon class="fil1" points="23.727,1.47959 22.6386,1.47959 22.6386,1.73958 22.9647,1.73958 22.9647,3.5068 22.6386,3.5068 22.6386,3.7668 24.0532,3.7668 24.0532,3.5068 23.727,3.5068 "/>
  <path class="fil2" d="M22.7529 0.560793c0.000988961,0.103529 0.0256609,0.196283 0.0750049,0.279095 0.0482509,0.0828645 0.114407,0.147928 0.198209,0.19722 0.0828125,0.048355 0.177492,0.073027 0.282999,0.0740159 0.103581,-0.000988961 0.19722,-0.0256609 0.279147,-0.0740159 0.0828125,-0.0492919 0.148865,-0.114355 0.19722,-0.19722 0.0483029,-0.0828125 0.0729749,-0.175567 0.0739639,-0.279095 -0.000988961,-0.105507 -0.0256609,-0.200187 -0.0739639,-0.283988 -0.048355,-0.0829166 -0.114407,-0.148969 -0.19722,-0.198261 -0.0819276,-0.0483029 -0.175567,-0.0729749 -0.279147,-0.0739639 -0.105507,0.000988961 -0.200187,0.0256609 -0.282999,0.0739639 -0.0838014,0.0492919 -0.149958,0.115344 -0.198209,0.198261 -0.0493439,0.0838014 -0.0740159,0.178481 -0.0750049,0.283988z"/>
  <polygon class="fil0" points="22.0524,0.501351 20.9639,0.501351 20.9639,0.969546 21.29,0.969546 21.29,3.5068 20.9639,3.5068 20.9639,3.7668 22.3786,3.7668 22.3786,3.5068 22.0524,3.5068 "/>
  <path class="fil0" d="M19.3466 3.82848c0.26957,-0.000728708 0.500935,-0.0491878 0.693366,-0.145429 0.192431,-0.0961895 0.339318,-0.23428 0.44217,-0.414218 0.1028,-0.179991 0.154955,-0.395897 0.155683,-0.647821 -0.000728708,-0.251977 -0.0521547,-0.467883 -0.154226,-0.647093 -0.102123,-0.17921 -0.249739,-0.316572 -0.441441,-0.411356 -0.192431,-0.0954607 -0.424524,-0.14392 -0.695552,-0.144701 -0.26957,0.000780759 -0.500935,0.0492398 -0.693366,0.144701 -0.192431,0.0947841 -0.33937,0.232146 -0.44217,0.411356 -0.102852,0.17921 -0.155007,0.395116 -0.155735,0.647093 0.000728708,0.251925 0.0528834,0.467831 0.155735,0.647821 0.1028,0.179939 0.249739,0.318029 0.44217,0.414218 0.192431,0.0962415 0.423796,0.144701 0.693366,0.145429zm0 -0.242347c-0.0873929,-0.000728708 -0.159379,-0.0213407 -0.215229,-0.0602225 -0.0557982,-0.0396625 -0.0991563,-0.0933267 -0.12997,-0.16016 -0.0315947,-0.0668329 -0.0536641,-0.142462 -0.0676137,-0.226212 -0.0132208,-0.0837494 -0.0212887,-0.169685 -0.0242035,-0.259264 -0.00296688,-0.0889024 -0.0044243,-0.175567 -0.00369559,-0.259264 -0.000728708,-0.0889024 0.000728708,-0.178481 0.00369559,-0.26957 0.00291483,-0.0903598 0.0109827,-0.176295 0.0242035,-0.259264 0.0139496,-0.082292 0.036019,-0.155735 0.0676137,-0.221111 0.0308139,-0.0646468 0.0741721,-0.116021 0.12997,-0.153497 0.0558503,-0.0374764 0.127836,-0.056579 0.215229,-0.0573077 0.0866642,0.000728708 0.157921,0.0212887 0.212991,0.061732 0.0550695,0.0403912 0.0984276,0.0940033 0.129294,0.162294 0.0308139,0.0675616 0.0528834,0.143243 0.0661042,0.22694 0.0132208,0.0837494 0.0212887,0.169685 0.0242035,0.257806 0.00296688,0.087445 0.0044243,0.171871 0.00369559,0.251977 0.000728708,0.0793251 -0.000728708,0.163022 -0.00369559,0.251196 -0.00291483,0.0873929 -0.0109827,0.174057 -0.0242035,0.257806 -0.0132208,0.084426 -0.0352903,0.160836 -0.0661042,0.229127 -0.030866,0.0690711 -0.0742241,0.123412 -0.129294,0.164532 -0.0550695,0.0403912 -0.126327,0.061732 -0.212991,0.0624607z"/>
  <path class="fil0" d="M15.2217 4.42341l-0.326149 0 0 0.260045 1.44107 0 0 -0.260045 -0.352539 0 0 -0.947477c0.0631894,0.120445 0.150582,0.210076 0.259993,0.267332 0.110191,0.0573077 0.245366,0.0859355 0.405474,0.0852068 0.218144,-0.000728708 0.405422,-0.0491878 0.561886,-0.145429 0.156464,-0.0961895 0.27618,-0.23428 0.359878,-0.414218 0.0837494,-0.179991 0.126327,-0.395897 0.127107,-0.647821 -0.000780759,-0.249739 -0.0433581,-0.46351 -0.127107,-0.64272 -0.0836973,-0.179939 -0.203414,-0.3173 -0.359878,-0.414218 -0.156464,-0.0962415 -0.343742,-0.145429 -0.561886,-0.14621 -0.160108,-0.000728708 -0.295283,0.0279512 -0.405474,0.0852068 -0.10941,0.0573077 -0.196803,0.146939 -0.259993,0.267384l0 -0.290859 -1.08853 0 0 0.259993 0.326149 0 0 2.68383zm0.762385 -1.9126c0,-0.177024 0.0146783,-0.321725 0.0440868,-0.433373 0.0300852,-0.112377 0.0770869,-0.193888 0.141005,-0.246772 0.0631894,-0.0521547 0.145429,-0.0785964 0.246772,-0.0778677 0.0852068,0.000728708 0.154278,0.0212887 0.208619,0.061732 0.0543408,0.0396625 0.0962415,0.0925459 0.126327,0.157141 0.030866,0.0653755 0.0521547,0.136633 0.0653755,0.2145 0.0132208,0.0770869 0.0212887,0.153497 0.0235269,0.229127 0.00291483,0.0764102 0.00437225,0.144701 0.00364354,0.205704 0.000728708,0.0682904 -0.000728708,0.141005 -0.00364354,0.219601 -0.00223817,0.0778677 -0.010306,0.155683 -0.0235269,0.232094 -0.0132208,0.0771389 -0.0345095,0.146887 -0.0653755,0.210076 -0.0300852,0.0631373 -0.0719859,0.113835 -0.126327,0.15204 -0.0543408,0.0382051 -0.123412,0.0580364 -0.208619,0.0587651 -0.101342,0.000728708 -0.183582,-0.025713 -0.246772,-0.0778677 -0.0639181,-0.0528834 -0.11092,-0.135175 -0.141005,-0.246772 -0.0294086,-0.111648 -0.0440868,-0.256349 -0.0440868,-0.433373l0 -0.224754z"/>
  <path class="fil0" d="M13.3267 3.82848c0.26957,-0.000728708 0.500935,-0.0491878 0.693366,-0.145429 0.192431,-0.0961895 0.339318,-0.23428 0.44217,-0.414218 0.1028,-0.179991 0.154955,-0.395897 0.155683,-0.647821 -0.000728708,-0.251977 -0.0521547,-0.467883 -0.154226,-0.647093 -0.102123,-0.17921 -0.249739,-0.316572 -0.441441,-0.411356 -0.192431,-0.0954607 -0.424524,-0.14392 -0.695552,-0.144701 -0.26957,0.000780759 -0.500935,0.0492398 -0.693366,0.144701 -0.192431,0.0947841 -0.33937,0.232146 -0.44217,0.411356 -0.102852,0.17921 -0.155007,0.395116 -0.155735,0.647093 0.000728708,0.251925 0.0528834,0.467831 0.155735,0.647821 0.1028,0.179939 0.249739,0.318029 0.44217,0.414218 0.192431,0.0962415 0.423796,0.144701 0.693366,0.145429zm0 -0.242347c-0.0873929,-0.000728708 -0.159379,-0.0213407 -0.215229,-0.0602225 -0.0557982,-0.0396625 -0.0991563,-0.0933267 -0.12997,-0.16016 -0.0315947,-0.0668329 -0.0536641,-0.142462 -0.0676137,-0.226212 -0.0132208,-0.0837494 -0.0212887,-0.169685 -0.0242035,-0.259264 -0.00296688,-0.0889024 -0.0044243,-0.175567 -0.00369559,-0.259264 -0.000728708,-0.0889024 0.000728708,-0.178481 0.00369559,-0.26957 0.00291483,-0.0903598 0.0109827,-0.176295 0.0242035,-0.259264 0.0139496,-0.082292 0.036019,-0.155735 0.0676137,-0.221111 0.0308139,-0.0646468 0.0741721,-0.116021 0.12997,-0.153497 0.0558503,-0.0374764 0.127836,-0.056579 0.215229,-0.0573077 0.0866642,0.000728708 0.157921,0.0212887 0.212991,0.061732 0.0550695,0.0403912 0.0984276,0.0940033 0.129294,0.162294 0.0308139,0.0675616 0.0528834,0.143243 0.0661042,0.22694 0.0132208,0.0837494 0.0212887,0.169685 0.0242035,0.257806 0.00296688,0.087445 0.0044243,0.171871 0.00369559,0.251977 0.000728708,0.0793251 -0.000728708,0.163022 -0.00369559,0.251196 -0.00291483,0.0873929 -0.0109827,0.174057 -0.0242035,0.257806 -0.0132208,0.084426 -0.0352903,0.160836 -0.0661042,0.229127 -0.030866,0.0690711 -0.0742241,0.123412 -0.129294,0.164532 -0.0550695,0.0403912 -0.126327,0.061732 -0.212991,0.0624607z"/>
  <path class="fil0" d="M11.8988 1.45315c-0.0815112,-0.0110347 -0.154955,-0.0198313 -0.219601,-0.025713 -0.0646468,-0.00661042 -0.118988,-0.00957731 -0.163803,-0.00957731 -0.176295,-0.000728708 -0.326097,0.0374764 -0.450237,0.114615 -0.123412,0.0763582 -0.22184,0.193888 -0.294554,0.352539l0 -0.405422 -1.11055 0 0 0.259993 0.348166 0 0 1.76722 -0.326097 0 0 0.259993 1.50275 0 0 -0.259993 -0.414271 0 0 -0.903442c0.000780759,-0.175567 0.0220694,-0.324639 0.0646468,-0.448051 0.0433581,-0.123412 0.105038,-0.217415 0.185092,-0.282062 0.0800538,-0.0653235 0.175567,-0.0976469 0.287944,-0.0983756 0.107953,-0.000780759 0.190974,0.0286278 0.248229,0.0881216 0.0580364,0.0587651 0.0910885,0.149854 0.099885,0.273213l0.2424 0 0 -0.68306 0 0z"/>
  <path class="fil0" d="M7.93251 3.14099c-0.000312303,0.14215 0.0167082,0.261294 0.0484591,0.351081 0.0318029,0.0897872 0.082292,0.16016 0.148396,0.209347 0.0661042,0.0484591 0.149854,0.082292 0.251196,0.100614 0.101342,0.0183739 0.221059,0.0271704 0.35842,0.0264417 0.182906,0.000728708 0.329064,-0.0191026 0.439983,-0.0594938 0.110868,-0.0403912 0.191702,-0.105767 0.243857,-0.196803 0.0521026,-0.0918172 0.0815112,-0.213043 0.0873929,-0.365083l-0.321725 0c-0.00218612,0.129294 -0.025713,0.225483 -0.0705285,0.287215 -0.0447635,0.0616799 -0.112377,0.0925459 -0.202685,0.0918172 -0.0543408,0 -0.0969702,-0.0088486 -0.127055,-0.0264417 -0.030866,-0.0183739 -0.0528834,-0.0455443 -0.0661042,-0.082292 -0.0124921,-0.0366957 -0.0211325,-0.0827604 -0.0235269,-0.138819 -0.00239433,-0.0552777 -0.00369559,-0.121902 -0.00369559,-0.197584l0 -2.17145 11.9439 0 0 -0.468195 -11.9439 0 0 -0.501351 -0.762385 0 0 0.501351 -3.0612 0.000988961 0 0.468195 3.06698 0 -0.00577761 2.17046z"/>
  <path class="fil0" d="M7.29791 2.73115c-0.0161357,-0.430406 -0.124141,-0.757232 -0.324639,-0.979071 -0.200499,-0.22184 -0.4899,-0.333436 -0.869661,-0.334217 -0.259264,0.000780759 -0.480323,0.0485111 -0.663228,0.143243 -0.182906,0.0947841 -0.323182,0.232094 -0.420152,0.411304 -0.0961895,0.178481 -0.145429,0.395168 -0.146158,0.648602 0.000728708,0.259264 0.0477824,0.478137 0.142514,0.658075 0.094732,0.17921 0.232822,0.315114 0.415728,0.408389 0.182906,0.0932746 0.406151,0.140276 0.671296,0.141005 0.218925,0 0.404745,-0.0264417 0.558971,-0.0807825 0.154955,-0.0543408 0.279095,-0.136633 0.374608,-0.248229 0.094732,-0.111648 0.163022,-0.252706 0.203466,-0.424577l-0.357015 0c-0.0293565,0.165989 -0.0940033,0.292368 -0.194617,0.379761 -0.101342,0.0866642 -0.23428,0.130751 -0.400321,0.13148 -0.132937,0.000728708 -0.241619,-0.0279512 -0.324639,-0.0852068 -0.0829686,-0.056579 -0.14392,-0.146887 -0.182125,-0.270299 -0.0389338,-0.123412 -0.0580364,-0.284248 -0.0573077,-0.481832l0 -0.0176451 1.57328 0zm-1.57328 -0.255568l0 -0.0396625c-0.000728708,-0.185873 0.0117634,-0.335674 0.036019,-0.450289 0.0242035,-0.113835 0.0638661,-0.196803 0.117478,-0.248958 0.0536121,-0.051426 0.124869,-0.0771389 0.212262,-0.0764102 0.0896311,-0.00145742 0.160888,0.0242556 0.215229,0.0771389 0.0550695,0.0528834 0.0940033,0.138819 0.118988,0.258535 0.0242556,0.119716 0.0367477,0.279095 0.0359669,0.479646l-0.735943 0z"/>
  <polygon class="fil0" points="1.11935,3.7668 1.11935,3.5068 0.709501,3.5068 0.709501,1.05652 1.70106,3.29527 2.24754,3.29527 3.24353,1.05652 3.24353,3.5068 2.83369,3.5068 2.83369,3.7668 4.48629,3.7668 4.48629,3.5068 4.07644,3.5068 4.07644,0.970275 4.48629,0.970275 4.48629,0.50208 3.16421,0.50208 2.24317,2.61658 1.32651,0.50208 -0,0.50208 -0,0.970275 0.409846,0.970275 0.409846,3.5068 -0,3.5068 -0,3.7668 "/>
  <path class="fil3" d="M35.4927 0.501351l4.30521 0c0.286278,0 0.520506,0.234488 0.520506,0.520506l0 2.23625c0,0.286018 -0.234488,0.520506 -0.520506,0.520506l-3.6286 0 -0.676605 0.803401 0 -4.08066zm0.61909 2.28627c0.000364354,0.0377887 0.00988961,0.0723503 0.0282635,0.103164 0.0183739,0.030866 0.0429938,0.0551216 0.0734434,0.0734434 0.030866,0.0183739 0.0653755,0.0279512 0.103216,0.0283155 0.0378408,-0.000364354 0.0723503,-0.00994166 0.103216,-0.0283155 0.0308139,-0.0183218 0.0550695,-0.0425774 0.0734434,-0.0734434 0.0183218,-0.0308139 0.0278991,-0.0653755 0.0282635,-0.103164 -0.000364354,-0.0378408 -0.00994166,-0.0723503 -0.0282635,-0.103216 -0.0183739,-0.030866 -0.0426294,-0.0550695 -0.0734434,-0.0734434 -0.030866,-0.0183739 -0.0653755,-0.0278991 -0.103216,-0.0282635 -0.0378408,0.000364354 -0.0723503,0.00988961 -0.103216,0.0282635 -0.0304496,0.0183739 -0.0550695,0.0425774 -0.0734434,0.0734434 -0.0183739,0.030866 -0.0278991,0.0653755 -0.0282635,0.103216zm0.639025 0.0440348l0 0.130022 0.544241 0 0 -0.145429c0.0315947,0.0602225 0.0752651,0.105038 0.130022,0.133666 0.0550695,0.0286799 0.122631,0.0429938 0.202685,0.0426294 0.109098,-0.000364354 0.202737,-0.0246199 0.280969,-0.0727146 0.07818,-0.0481468 0.13809,-0.117166 0.179939,-0.207161 0.0418487,-0.0899434 0.0631373,-0.197948 0.0635017,-0.323911 -0.000364354,-0.124817 -0.021653,-0.231729 -0.0635017,-0.321308 -0.0418487,-0.0899954 -0.101759,-0.15865 -0.179939,-0.207109 -0.078232,-0.0481468 -0.171871,-0.0727146 -0.280969,-0.073079 -0.0800538,-0.000416405 -0.147615,0.0139496 -0.202685,0.0425774 -0.0547572,0.0286278 -0.0984276,0.0734434 -0.130022,0.133666l0 -0.676449 -0.544241 0 0 0.130022 0.163022 0 0 1.41458 -0.163022 0zm0.544241 -0.497968c0,-0.088486 0.00733913,-0.160836 0.0220174,-0.216687 0.0150947,-0.0561626 0.0385695,-0.0969182 0.0705285,-0.12336 0.0315947,-0.0260773 0.0727146,-0.0392982 0.123412,-0.0389338 0.0425774,0.000364354 0.0770869,0.00988961 0.104257,0.0286278 0.0271704,0.0187382 0.0481468,0.0433581 0.0631894,0.0745364 0.015407,0.0312303 0.0260773,0.0657399 0.0326878,0.103945 0.00661042,0.0378408 0.0106183,0.0764102 0.0117634,0.115708 0.00145742,0.0392982 0.00218612,0.0763582 0.00182177,0.111232 0.000364354,0.0341972 -0.000364354,0.0705285 -0.00182177,0.109827 -0.00114511,0.0389338 -0.00515301,0.0778677 -0.0117634,0.116073 -0.00661042,0.0385174 -0.0172808,0.0734434 -0.0326878,0.104986 -0.0150426,0.0315947 -0.036019,0.0569433 -0.0631894,0.0760459 -0.0271704,0.0191026 -0.0616799,0.0289922 -0.104257,0.0293565 -0.0506973,0.000364354 -0.0918172,-0.0128565 -0.123412,-0.0389338 -0.0319591,-0.0264417 -0.0554339,-0.0675616 -0.0705285,-0.12336 -0.0146783,-0.0558503 -0.0220174,-0.128201 -0.0220174,-0.216687l0 -0.112377zm2.15937 -0.0749008c0.000416405,-0.108369 -0.0209243,-0.197584 -0.0631373,-0.267384 -0.042213,-0.0693834 -0.107224,-0.121174 -0.194617,-0.15459 -0.0878093,-0.0330521 -0.199458,-0.0499685 -0.334945,-0.0495521 -0.0804181,0 -0.157557,0.00546531 -0.231365,0.0172287 -0.0738077,0.0117634 -0.144336,0.0301373 -0.211534,0.0554339l0 0.246824 0.121174 0c0.0113991,-0.0477304 0.0283155,-0.0862998 0.0503329,-0.115708 0.0220174,-0.0293565 0.0506973,-0.0510096 0.0859355,-0.0645948 0.0348739,-0.0136372 0.0778677,-0.020612 0.128149,-0.0202477 0.0910885,-0.000364354 0.159014,0.0217051 0.203101,0.0661042 0.0440868,0.0444512 0.0661042,0.112794 0.0657399,0.204923l0 0.0683424 -0.200499 0c-0.361387,0 -0.542055,0.127784 -0.542055,0.383405 0.000364354,0.118259 0.0315426,0.208202 0.0932746,0.270299 0.0620443,0.0616799 0.15204,0.0929103 0.270299,0.0932746 0.0789607,0.000364354 0.149437,-0.0139496 0.211898,-0.0426294 0.0620443,-0.0286278 0.117842,-0.0734434 0.167082,-0.133666l0 0.145429 0.544241 0 0 -0.130022 -0.163074 0 0 -0.572869zm-0.381166 0.343742c-0.000364354,0.042213 -0.00843219,0.0789607 -0.0249843,0.110503 -0.0161357,0.0315947 -0.0389338,0.056579 -0.0682904,0.0742241 -0.0294086,0.0175931 -0.0635537,0.0264417 -0.102852,0.026806 -0.0568913,0 -0.0991563,-0.0180095 -0.126691,-0.0543928 -0.0275348,-0.0359669 -0.04112,-0.0899434 -0.0407556,-0.161565 0.000364354,-0.0719859 0.0194669,-0.12742 0.0573077,-0.165989 0.0377887,-0.0389338 0.0921816,-0.0584007 0.163022,-0.0587651l0.143243 0 0 0.229179z"/>
 </g>
</svg>
